{
	"asset":{
		"generator":"Khronos glTF Blender I/O v3.6.28",
		"version":"2.0"
	},
	"scene":0,
	"scenes":[
		{
			"name":"Waterspout01",
			"nodes":[
				12
			]
		}
	],
	"nodes":[
		{
			"name":"OilTank01",
			"rotation":[
				-0.7071067690849304,
				0,
				0,
				0.7071067690849304
			],
			"translation":[
				-363.52593994140625,
				-1.1062660217285156,
				-391.2150573730469
			]
		},
		{
			"name":"Box03",
			"rotation":[
				4.142465016843122e-12,
				3.448032970254644e-09,
				9.983784821088193e-07,
				1
			],
			"scale":[
				1,
				0.9999999403953552,
				1
			],
			"translation":[
				4.461104981601238e-05,
				-108.48316955566406,
				-3.0440314731094986e-06
			]
		},
		{
			"children":[
				1
			],
			"name":"Box02",
			"rotation":[
				2.361861817234967e-10,
				1.0447996245943614e-08,
				-1.0058270163426641e-06,
				1
			],
			"scale":[
				1,
				0.9999999403953552,
				1
			],
			"translation":[
				-9.05642518773675e-05,
				-42.61562728881836,
				-1.5231232737278333e-06
			]
		},
		{
			"children":[
				2
			],
			"name":"Box01",
			"rotation":[
				-7.714834993066688e-08,
				-1.008186867323957e-09,
				0.5000009536743164,
				0.8660248517990112
			],
			"translation":[
				15.215635299682617,
				-26.72085189819336,
				1.125037670135498e-06
			]
		},
		{
			"name":"QuadPatch01",
			"rotation":[
				0.5000000596046448,
				-0.5,
				0.5,
				0.5
			],
			"translation":[
				134.6549835205078,
				-68.0411376953125,
				-0.10829058289527893
			]
		},
		{
			"children":[
				3,
				4
			],
			"name":"Box04",
			"rotation":[
				-0.5000863075256348,
				0.49991366267204285,
				-0.49991366267204285,
				0.5000863075256348
			],
			"translation":[
				5.913745880126953,
				276.4605407714844,
				-22.949405670166016
			]
		},
		{
			"name":"Box08",
			"translation":[
				95.55203247070312,
				-52.67145538330078,
				0
			]
		},
		{
			"children":[
				6
			],
			"name":"Box07",
			"scale":[
				1,
				0.9999999403953552,
				1
			],
			"translation":[
				-79.11184692382812,
				-30.153034210205078,
				0
			]
		},
		{
			"children":[
				7
			],
			"name":"Box06",
			"translation":[
				-2.529397964477539,
				-66.74270629882812,
				0
			]
		},
		{
			"name":"QuadPatch02",
			"translation":[
				-26.1475772857666,
				-86.82484436035156,
				46.364017486572266
			]
		},
		{
			"children":[
				8,
				9
			],
			"name":"Box05",
			"rotation":[
				-0.7071067690849304,
				0,
				0,
				0.7071067690849304
			],
			"scale":[
				1,
				0.9999999403953552,
				1
			],
			"translation":[
				26.234235763549805,
				0,
				-86.22883605957031
			]
		},
		{
			"mesh":0,
			"name":"Waterspout01",
			"skin":0
		},
		{
			"children":[
				11,
				0,
				5,
				10
			],
			"name":"Waterspout01_skeleton"
		}
	],
	"materials":[
		{
			"doubleSided":true,
			"name":"stone_statue02.jpg",
			"pbrMetallicRoughness":{
				"baseColorFactor":[
					0.8089251518249512,
					0.5807597041130066,
					0.566188395023346,
					1
				],
				"metallicFactor":0,
				"roughnessFactor":0.4000000059604645
			}
		},
		{
			"doubleSided":true,
			"name":"reagon_waterspout.jpg",
			"pbrMetallicRoughness":{
				"baseColorFactor":[
					0.7434890270233154,
					0.749958872795105,
					0.4848632216453552,
					1
				],
				"metallicFactor":0,
				"roughnessFactor":0.4000000059604645
			}
		},
		{
			"doubleSided":true,
			"name":"ston01.jpg",
			"pbrMetallicRoughness":{
				"baseColorFactor":[
					0.6140466332435608,
					0.52424156665802,
					0.5586240291595459,
					1
				],
				"metallicFactor":0,
				"roughnessFactor":0.4000000059604645
			}
		},
		{
			"doubleSided":true,
			"name":"ston02.jpg",
			"pbrMetallicRoughness":{
				"baseColorFactor":[
					0.9273987412452698,
					0.5594586730003357,
					0.8745235204696655,
					1
				],
				"metallicFactor":0,
				"roughnessFactor":0.4000000059604645
			}
		}
	],
	"meshes":[
		{
			"name":"Waterspout01",
			"primitives":[
				{
					"attributes":{
						"POSITION":0,
						"NORMAL":1,
						"TEXCOORD_0":2,
						"JOINTS_0":3,
						"WEIGHTS_0":4
					},
					"indices":5,
					"material":0
				},
				{
					"attributes":{
						"POSITION":6,
						"NORMAL":7,
						"TEXCOORD_0":8,
						"JOINTS_0":9,
						"WEIGHTS_0":10
					},
					"indices":11,
					"material":1
				},
				{
					"attributes":{
						"POSITION":12,
						"NORMAL":13,
						"TEXCOORD_0":14,
						"JOINTS_0":15,
						"WEIGHTS_0":16
					},
					"indices":17,
					"material":2
				},
				{
					"attributes":{
						"POSITION":18,
						"NORMAL":19,
						"TEXCOORD_0":20,
						"JOINTS_0":21,
						"WEIGHTS_0":22
					},
					"indices":23,
					"material":3
				}
			]
		}
	],
	"skins":[
		{
			"inverseBindMatrices":24,
			"joints":[
				0,
				5,
				3,
				2,
				1,
				4,
				10,
				8,
				7,
				6,
				9
			],
			"name":"Waterspout01_skeleton"
		}
	],
	"accessors":[
		{
			"bufferView":0,
			"componentType":5126,
			"count":72,
			"max":[
				199.23431396484375,
				70.743408203125,
				199.74362182617188
			],
			"min":[
				-199.06100463867188,
				-0.13779999315738678,
				-198.55169677734375
			],
			"type":"VEC3"
		},
		{
			"bufferView":1,
			"componentType":5126,
			"count":72,
			"type":"VEC3"
		},
		{
			"bufferView":2,
			"componentType":5126,
			"count":72,
			"type":"VEC2"
		},
		{
			"bufferView":3,
			"componentType":5121,
			"count":72,
			"type":"VEC4"
		},
		{
			"bufferView":4,
			"componentType":5126,
			"count":72,
			"type":"VEC4"
		},
		{
			"bufferView":5,
			"componentType":5123,
			"count":216,
			"type":"SCALAR"
		},
		{
			"bufferView":6,
			"componentType":5126,
			"count":232,
			"max":[
				197.918701171875,
				311.2048034667969,
				184.36868286132812
			],
			"min":[
				-183.68600463867188,
				8.537300109863281,
				-183.17669677734375
			],
			"type":"VEC3"
		},
		{
			"bufferView":7,
			"componentType":5126,
			"count":232,
			"type":"VEC3"
		},
		{
			"bufferView":8,
			"componentType":5126,
			"count":232,
			"type":"VEC2"
		},
		{
			"bufferView":9,
			"componentType":5121,
			"count":232,
			"type":"VEC4"
		},
		{
			"bufferView":10,
			"componentType":5126,
			"count":232,
			"type":"VEC4"
		},
		{
			"bufferView":11,
			"componentType":5123,
			"count":1251,
			"type":"SCALAR"
		},
		{
			"bufferView":12,
			"componentType":5126,
			"count":39,
			"max":[
				89.30819702148438,
				162.7816925048828,
				18.1383056640625
			],
			"min":[
				-97.14801025390625,
				8.567399978637695,
				-128.38330078125
			],
			"type":"VEC3"
		},
		{
			"bufferView":13,
			"componentType":5126,
			"count":39,
			"type":"VEC3"
		},
		{
			"bufferView":14,
			"componentType":5126,
			"count":39,
			"type":"VEC2"
		},
		{
			"bufferView":15,
			"componentType":5121,
			"count":39,
			"type":"VEC4"
		},
		{
			"bufferView":16,
			"componentType":5126,
			"count":39,
			"type":"VEC4"
		},
		{
			"bufferView":17,
			"componentType":5123,
			"count":180,
			"type":"SCALAR"
		},
		{
			"bufferView":18,
			"componentType":5126,
			"count":71,
			"max":[
				159.39840698242188,
				277.4190979003906,
				161.81179809570312
			],
			"min":[
				-166.1938934326172,
				26.381393432617188,
				-162.2957000732422
			],
			"type":"VEC3"
		},
		{
			"bufferView":19,
			"componentType":5126,
			"count":71,
			"type":"VEC3"
		},
		{
			"bufferView":20,
			"componentType":5126,
			"count":71,
			"type":"VEC2"
		},
		{
			"bufferView":21,
			"componentType":5121,
			"count":71,
			"type":"VEC4"
		},
		{
			"bufferView":22,
			"componentType":5126,
			"count":71,
			"type":"VEC4"
		},
		{
			"bufferView":23,
			"componentType":5123,
			"count":270,
			"type":"SCALAR"
		},
		{
			"bufferView":24,
			"componentType":5126,
			"count":11,
			"type":"MAT4"
		}
	],
	"bufferViews":[
		{
			"buffer":0,
			"byteLength":864,
			"byteOffset":0,
			"target":34962
		},
		{
			"buffer":0,
			"byteLength":864,
			"byteOffset":864,
			"target":34962
		},
		{
			"buffer":0,
			"byteLength":576,
			"byteOffset":1728,
			"target":34962
		},
		{
			"buffer":0,
			"byteLength":288,
			"byteOffset":2304,
			"target":34962
		},
		{
			"buffer":0,
			"byteLength":1152,
			"byteOffset":2592,
			"target":34962
		},
		{
			"buffer":0,
			"byteLength":432,
			"byteOffset":3744,
			"target":34963
		},
		{
			"buffer":0,
			"byteLength":2784,
			"byteOffset":4176,
			"target":34962
		},
		{
			"buffer":0,
			"byteLength":2784,
			"byteOffset":6960,
			"target":34962
		},
		{
			"buffer":0,
			"byteLength":1856,
			"byteOffset":9744,
			"target":34962
		},
		{
			"buffer":0,
			"byteLength":928,
			"byteOffset":11600,
			"target":34962
		},
		{
			"buffer":0,
			"byteLength":3712,
			"byteOffset":12528,
			"target":34962
		},
		{
			"buffer":0,
			"byteLength":2502,
			"byteOffset":16240,
			"target":34963
		},
		{
			"buffer":0,
			"byteLength":468,
			"byteOffset":18744,
			"target":34962
		},
		{
			"buffer":0,
			"byteLength":468,
			"byteOffset":19212,
			"target":34962
		},
		{
			"buffer":0,
			"byteLength":312,
			"byteOffset":19680,
			"target":34962
		},
		{
			"buffer":0,
			"byteLength":156,
			"byteOffset":19992,
			"target":34962
		},
		{
			"buffer":0,
			"byteLength":624,
			"byteOffset":20148,
			"target":34962
		},
		{
			"buffer":0,
			"byteLength":360,
			"byteOffset":20772,
			"target":34963
		},
		{
			"buffer":0,
			"byteLength":852,
			"byteOffset":21132,
			"target":34962
		},
		{
			"buffer":0,
			"byteLength":852,
			"byteOffset":21984,
			"target":34962
		},
		{
			"buffer":0,
			"byteLength":568,
			"byteOffset":22836,
			"target":34962
		},
		{
			"buffer":0,
			"byteLength":284,
			"byteOffset":23404,
			"target":34962
		},
		{
			"buffer":0,
			"byteLength":1136,
			"byteOffset":23688,
			"target":34962
		},
		{
			"buffer":0,
			"byteLength":540,
			"byteOffset":24824,
			"target":34963
		},
		{
			"buffer":0,
			"byteLength":704,
			"byteOffset":25364
		}
	],
	"buffers":[
		{
			"byteLength":26068,
			"uri":"data:application/octet-stream;base64,"
		}
	]
}
